<svg width="64" height="21" viewBox="0 0 64 21" fill="none" xmlns="http://www.w3.org/2000/svg">
<path fill-rule="evenodd" clip-rule="evenodd" d="M62.3542 8.95007V9.04334H62.0895V9.73371H61.981V9.04334H61.7161V8.95007H62.3542Z" fill="#7E899A"/>
<path fill-rule="evenodd" clip-rule="evenodd" d="M62.4465 8.94977H62.6017L62.8246 9.61335L63.049 8.94977H63.201V9.73341H63.0994V9.19246C63.0994 9.15476 63.1004 9.11547 63.1004 9.0726L62.8762 9.73341H62.7718L62.5469 9.0726V9.09721C62.5469 9.11586 62.5483 9.14503 62.5483 9.18432C62.5499 9.22421 62.5499 9.25279 62.5499 9.27144V9.73341H62.4465V8.94977Z" fill="#7E899A"/>
<path fill-rule="evenodd" clip-rule="evenodd" d="M10.589 18.1235C9.70791 18.9012 8.25096 19.3864 6.3876 19.3864C4.94355 19.3864 4.23274 19.0538 3.99441 18.7079C3.84875 18.5065 3.81085 17.7766 3.79319 17.318C3.78208 17.0755 3.76799 16.3115 3.76164 15.2112C3.75886 12.1808 3.76799 8.1836 3.78664 7.82244C3.79676 7.65178 3.82593 7.51029 3.8686 7.39123C3.90015 7.35928 3.94063 7.33348 3.99441 7.30967C4.14225 7.23625 4.81694 7.18128 5.18088 7.18128C6.60727 7.18128 8.68832 7.40056 10.3685 9.00773C11.1555 9.75704 12.1221 11.2537 12.1221 13.573C12.1221 15.4559 11.7417 17.1001 10.589 18.1235ZM12.7988 8.40506C10.8083 6.32263 7.75684 6.32263 5.47378 6.32263H5.13961V6.29663L0.0105173 6.29881L0 6.74253C0 6.74253 1.37738 6.7461 1.44604 7.82442C1.47898 8.34771 1.47243 18.0421 1.44147 18.6162C1.38273 19.6937 0.575477 19.7011 0.0942592 19.7011C0.0930686 19.7011 0.0877107 20.1388 0.0877107 20.1388H3.75529C4.60025 20.1448 5.59701 20.1541 6.46519 20.1541C9.84344 20.1541 11.7401 18.9992 12.5799 18.1411C13.6023 17.1001 14.5711 15.3467 14.5711 13.044C14.5711 10.8713 13.712 9.35678 12.7988 8.40506Z" fill="#7E899A"/>
<path fill-rule="evenodd" clip-rule="evenodd" d="M40.0844 20.1582C39.3529 20.1582 34.6584 20.1546 34.6584 20.1546C34.6584 20.1546 34.6545 19.7867 34.6584 19.7867C35.0636 19.7867 35.7566 19.7855 35.8056 18.908C35.8169 18.6628 35.861 16.4113 35.861 14.2365C35.861 12.2458 35.8225 10.3195 35.8084 10.1157C35.7528 9.23564 34.5852 9.23465 34.5852 9.23465L34.5939 8.87329L38.9364 8.8725L38.932 9.23128C38.5244 9.23128 37.8404 9.23564 37.7916 10.1143C37.7787 10.3427 37.7696 12.3442 37.7696 14.3784C37.7803 15.3718 37.7837 16.802 37.8793 17.8317C37.9928 19.0485 37.8742 19.3708 39.5026 19.3708C39.6778 19.3708 39.6484 19.3724 40.0004 19.3637C41.1516 19.34 41.6328 19.1896 41.8846 18.731C42.0279 18.4689 42.3543 17.846 42.3543 17.846L42.9003 17.8484L41.6152 20.3648C41.6152 20.3648 40.8172 20.1582 40.0844 20.1582Z" fill="#7E899A"/>
<path fill-rule="evenodd" clip-rule="evenodd" d="M20.4077 15.5575H17.5623C17.4994 15.5575 17.4861 15.5114 17.4994 15.4535L18.9252 11.7946C18.9393 11.7347 18.9704 11.6607 19.0168 11.6607C19.0629 11.6607 19.0786 11.7347 19.0958 11.7946L20.4851 15.4668C20.5018 15.5114 20.4851 15.5575 20.4077 15.5575ZM24.5369 20.1805C24.5369 20.1805 24.4942 20.1399 23.6244 18.2334C22.6013 15.9865 20.1601 9.90549 19.7896 9.08911C19.635 8.74621 19.5431 8.61365 19.4052 8.61365C19.249 8.61365 19.156 8.77518 18.9704 9.20619L15.4991 17.5625C15.3907 17.8086 15.2937 18.0358 15.209 18.2305C14.7353 19.3082 14.3533 19.6539 14.0527 19.7868C13.9612 19.8202 13.8641 19.8418 13.7574 19.8418C13.3698 19.8418 13.2551 19.8396 13.2551 19.8396V20.1859L16.7108 20.1875C16.7108 20.1875 16.7132 19.8418 16.7108 19.8418C16.072 19.8418 15.7962 19.7983 15.9714 19.3314L16.2776 18.5492C16.2776 18.5482 16.2776 18.5466 16.2786 18.5466L17.1148 16.4197C17.1446 16.3284 17.1767 16.301 17.2529 16.301H20.7032C20.7766 16.301 20.8246 16.3284 20.8558 16.4001V16.4108L22.0014 19.3326C22.1768 19.7983 21.9004 19.8418 21.2634 19.8418C21.2592 19.8418 21.2634 20.1875 21.2634 20.1875L24.5369 20.1805Z" fill="#7E899A"/>
<mask id="mask0" mask-type="alpha" maskUnits="userSpaceOnUse" x="25" y="8" width="37" height="13">
<path d="M25.5266 8.61072H61.1084V20.3838H25.5266V8.61072Z" fill="white"/>
</mask>
<g mask="url(#mask0)">
<path fill-rule="evenodd" clip-rule="evenodd" d="M48.9727 15.5553H46.126C46.0643 15.5553 46.0474 15.5099 46.0643 15.4508L47.4891 11.7927C47.5044 11.7324 47.5351 11.66 47.5802 11.66C47.6266 11.66 47.6407 11.7324 47.6578 11.7927L49.05 15.4656C49.0667 15.5099 49.05 15.5553 48.9727 15.5553ZM53.6404 19.8395C53.5332 19.8395 53.435 19.8188 53.3443 19.7867C53.0437 19.6527 52.6619 19.3067 52.1896 18.2303C51.2001 15.9703 48.7228 9.90455 48.3547 9.08678C48.2013 8.74387 48.1055 8.61072 47.9675 8.61072C47.8114 8.61072 47.7195 8.77384 47.5351 9.20544L44.0616 17.5582C43.9555 17.8068 43.8628 18.037 43.7711 18.2303C42.9452 19.9941 42.8303 20.1854 42.8303 20.1854H45.2731C45.2731 20.1854 45.2769 19.8395 45.2731 19.8395C44.6367 19.8395 44.3595 19.7972 44.5351 19.3273L44.8413 18.5466C44.8413 18.5466 44.8423 18.5466 44.8449 18.5446L45.6783 16.4164C45.7107 16.3281 45.7403 16.3001 45.8174 16.3001H49.2667C49.3419 16.3001 49.3882 16.3273 49.418 16.3977L49.4215 16.4082L50.5661 19.3313C50.7406 19.7982 50.4643 19.8395 49.8271 19.8395C49.8228 19.8395 49.8271 20.1873 49.8271 20.1873L54.1432 20.1854V19.8387C54.1432 19.8387 54.0269 19.8395 53.6404 19.8395Z" fill="#7E899A"/>
<path fill-rule="evenodd" clip-rule="evenodd" d="M33.5394 17.8773C33.5394 17.8773 33.2108 18.5017 33.0679 18.7649C32.8199 19.2203 32.3345 19.3725 31.1857 19.3963C30.8339 19.4033 30.6212 19.4033 30.4456 19.4033C28.8168 19.4033 28.9354 19.0796 28.8221 17.863C28.7241 16.8331 28.7217 15.4019 28.7112 14.4081C28.7112 12.3759 28.7217 10.3736 28.733 10.1454C28.7836 9.26732 29.467 9.26375 29.875 9.26375L29.879 8.90417L25.5355 8.90517L25.5266 9.26494C25.5266 9.26494 26.6934 9.26732 26.752 10.1474C26.7639 10.3508 26.8054 12.2767 26.8054 14.2676C26.8016 16.4413 26.7615 18.6966 26.7472 18.9375C26.6984 19.8148 26.0066 19.819 25.6002 19.819C25.5973 19.819 25.6002 20.1855 25.6002 20.1855C25.6002 20.1855 29.1382 20.1829 31.426 20.1907C32.6066 20.2345 32.7979 20.3959 32.7979 20.3959L34.0846 17.8796L33.5394 17.8773Z" fill="#7E899A"/>
<path fill-rule="evenodd" clip-rule="evenodd" d="M58.5729 13.4002L58.1383 13.0885C56.854 12.1502 56.5006 11.6295 56.5006 10.9473C56.5006 10.0555 57.1947 9.41494 58.3419 9.41494C59.5512 9.41494 60.3408 9.74693 60.3408 11.2471H60.7472C60.7512 11.2001 60.7522 11.1443 60.7522 11.08C60.7522 9.92155 60.8155 9.05377 60.8155 9.05377C60.8155 9.05377 60.7367 9.01369 60.599 8.98432C60.1965 8.87895 59.547 8.73151 58.5417 8.73151C56.3924 8.73151 54.969 9.90489 54.969 11.542C54.969 12.7454 55.5566 13.7868 57.2564 15.0651L57.9688 15.6013C59.2529 16.5524 59.4853 17.2515 59.4853 17.9802C59.4853 18.7668 58.8049 19.6741 57.4112 19.6741C55.7046 19.6741 55.1264 19.0897 55.1264 17.1906C55.1264 17.1853 55.1264 17.1815 55.125 17.1759H54.7368C54.7303 17.2182 54.7239 17.2639 54.7225 17.3145C54.7057 17.554 54.6426 19.8265 54.6426 19.8265C54.6426 19.8265 54.6912 19.8974 54.9392 20.0021C55.6036 20.2845 56.2994 20.3905 57.1947 20.3905C58.0153 20.3905 58.8811 20.2551 59.6554 19.7781C60.7678 19.0808 61.1084 18.0544 61.1084 17.1922C61.1084 15.7801 60.4289 14.7839 58.5729 13.4002Z" fill="#7E899A"/>
</g>
<path fill-rule="evenodd" clip-rule="evenodd" d="M33.7061 0.0374129C34.1315 0.0374129 34.3024 0.00189209 34.3024 0.00189209L34.1613 0.323366C34.1613 0.323366 33.7787 0.2936 33.7787 0.576774C33.7787 0.576774 33.7787 6.04936 33.7916 6.2486L33.0943 6.25217C32.5641 5.54314 31.7502 4.41084 31.0196 3.40554C30.233 2.32404 29.5089 1.35784 29.3801 1.22647V4.06913C29.3801 5.6884 29.4295 6.21427 29.4295 6.21427C29.3424 6.21427 29.1828 6.19522 28.9191 6.19522C28.578 6.19522 28.1289 6.21427 28.1289 6.21427L28.2722 5.8922C28.2722 5.8922 28.8018 5.92375 28.8068 5.64038C28.8443 3.57144 28.8361 0.90301 28.8361 0.693854C28.8361 0.485095 28.5865 0.358688 28.3077 0.352139H28.1914L28.3319 0.00407493C28.3319 0.00407493 28.6329 0.0352301 28.9673 0.0352301C29.3027 0.0352301 29.5051 0.00447181 29.5051 0.00447181C29.5051 0.00447181 30.2867 1.09451 31.0841 2.17938C32.0352 3.47281 33.1195 4.90218 33.2255 5.01152C33.2584 3.56846 33.2165 0.835342 33.2165 0.834747L33.1766 0.00546402C33.1766 0.00546402 33.2802 0.0374129 33.7061 0.0374129Z" fill="#7E899A"/>
<path fill-rule="evenodd" clip-rule="evenodd" d="M26.7686 0.0457925C26.5196 0.0457925 26.186 0.00650131 26.186 0.00650131L26.0483 0.326983C26.0483 0.326983 26.4557 0.310512 26.4557 0.576819C26.4557 0.576819 26.4503 3.46631 26.4503 4.14914C26.4503 5.39515 25.8202 5.81247 24.9219 5.81247C23.4969 5.81247 23.4521 4.77661 23.4521 3.83025C23.4521 3.83025 23.4832 1.67102 23.4832 0.631986C23.4832 0.275388 23.9238 0.32599 23.9238 0.32599L24.0633 0.00372314C24.0633 0.00372314 23.4574 0.0434112 23.125 0.0434112C22.7922 0.0434112 22.1892 0.00372314 22.1892 0.00372314L22.0513 0.32599C22.0513 0.32599 22.5829 0.264871 22.5829 0.53475C22.5829 0.53475 22.5825 2.85372 22.5825 2.89421C22.5825 4.66648 22.5849 5.01593 22.8617 5.46798C23.1913 6.00496 24.0579 6.29925 24.8927 6.29925C25.6682 6.29925 26.1866 6.05675 26.5325 5.65213C26.8857 5.23799 27.0049 4.65477 27.0049 3.989C27.0049 3.35241 27.0039 0.712552 27.0319 0.579597C27.0319 0.273602 27.4524 0.328372 27.4524 0.328372L27.5951 0.00372314C27.5951 0.00372314 27.0176 0.0457925 26.7686 0.0457925Z" fill="#7E899A"/>
<path fill-rule="evenodd" clip-rule="evenodd" d="M36.7959 0.04326C35.8799 0.04326 34.8095 0.00337349 34.8031 0.00297661L34.4646 0.858057L34.7039 1.0303C34.9016 0.558213 35.0367 0.529042 35.3441 0.529042C35.3441 0.529042 36.37 0.553252 36.379 0.554046C36.3797 0.561388 36.3948 0.784832 36.3948 2.22412C36.3948 2.22412 36.3919 5.39877 36.3919 5.63293C36.3919 5.93178 35.8499 5.88773 35.8499 5.88773L35.711 6.20662C35.711 6.20662 36.4107 6.16713 36.8151 6.16773C37.2604 6.16773 37.7002 6.20662 37.7002 6.20662L37.8395 5.88773C37.8395 5.88773 37.2203 5.91273 37.2203 5.63015C37.2203 5.63114 37.2003 4.45796 37.2003 2.62378C37.2003 2.22313 37.2197 0.559205 37.2201 0.556427C37.2715 0.556427 38.0834 0.525669 38.0834 0.525669C38.6616 0.525669 38.669 0.543132 38.8341 0.98109C38.8354 0.986249 39.04 0.98109 39.04 0.98109L39.0569 0C39.0569 0 37.667 0.04326 36.7959 0.04326Z" fill="#7E899A"/>
<path fill-rule="evenodd" clip-rule="evenodd" d="M0 2.68416H18.8959V2.35773H0V2.68416Z" fill="#7E899A"/>
<path fill-rule="evenodd" clip-rule="evenodd" d="M42.2126 2.68416H61.1083V2.35773H42.2126V2.68416Z" fill="#7E899A"/>
</svg>
