<svg width="37" height="29" viewBox="0 0 37 29" fill="none" xmlns="http://www.w3.org/2000/svg">
<path d="M7.31852 7.26363C7.30607 7.53399 7.23315 7.77323 7.09974 7.98134C6.96634 8.18767 6.77869 8.34775 6.53679 8.46159C6.29666 8.57542 6.02185 8.63234 5.71236 8.63234C5.20187 8.63234 4.79989 8.46603 4.5064 8.13342C4.21292 7.8008 4.06618 7.33122 4.06618 6.72469V6.53259C4.06618 6.15195 4.13199 5.81933 4.26361 5.53474C4.39701 5.24837 4.58822 5.02781 4.83724 4.87306C5.08626 4.71654 5.37441 4.63827 5.70169 4.63827C6.17304 4.63827 6.55191 4.76278 6.83828 5.0118C7.12465 5.25904 7.2874 5.60055 7.32653 6.03633H6.39271C6.3856 5.79976 6.32601 5.6299 6.21395 5.52673C6.1019 5.42357 5.93114 5.37199 5.70169 5.37199C5.46868 5.37199 5.29792 5.45914 5.18942 5.63346C5.08092 5.80777 5.024 6.08613 5.01867 6.46855V6.74336C5.01867 7.1578 5.07025 7.45395 5.17341 7.63182C5.27836 7.80969 5.45801 7.89863 5.71236 7.89863C5.92758 7.89863 6.09211 7.84793 6.20595 7.74655C6.31979 7.64516 6.38026 7.48419 6.38738 7.26363H7.31852ZM11.2816 8.57898H10.3505V6.95681H8.97111V8.57898H8.03463V4.6943H8.97111V6.23643H10.3505V4.6943H11.2816V8.57898ZM13.1477 8.57898H12.2139V4.6943H13.1477V8.57898ZM15.0084 7.85861H16.6385V8.57898H14.0719V4.6943H15.0084V7.85861ZM17.3066 8.57898V4.6943H18.5579C18.9012 4.6943 19.2098 4.77257 19.4838 4.92909C19.7577 5.08384 19.9711 5.30351 20.1241 5.5881C20.2788 5.87091 20.3571 6.18841 20.3589 6.54059V6.71935C20.3589 7.07509 20.2833 7.39437 20.1321 7.67718C19.9827 7.95821 19.771 8.17877 19.4971 8.33886C19.225 8.49716 18.9208 8.5772 18.5846 8.57898H17.3066ZM18.2431 5.41734V7.85861H18.5686C18.8372 7.85861 19.0435 7.76345 19.1876 7.57313C19.3317 7.38103 19.4037 7.09643 19.4037 6.71935V6.55126C19.4037 6.17596 19.3317 5.89315 19.1876 5.70282C19.0435 5.5125 18.8336 5.41734 18.5579 5.41734H18.2431ZM5.11205 12.261V13.579H4.17557V9.6943H5.7257C6.02274 9.6943 6.2851 9.74944 6.51277 9.85972C6.74223 9.96822 6.91921 10.1239 7.04372 10.3266C7.17 10.5276 7.23315 10.7562 7.23315 11.0123C7.23315 11.3912 7.09708 11.6944 6.82494 11.9221C6.55457 12.148 6.18283 12.261 5.70969 12.261H5.11205ZM5.11205 11.5379H5.7257C5.90713 11.5379 6.04498 11.4926 6.13925 11.4019C6.2353 11.3111 6.28332 11.1831 6.28332 11.0177C6.28332 10.8362 6.23441 10.6913 6.13658 10.5828C6.03875 10.4743 5.90535 10.4191 5.73637 10.4173H5.11205V11.5379ZM11.2976 11.7167C11.2976 12.0955 11.2274 12.4308 11.0869 12.7225C10.9464 13.0142 10.7463 13.2392 10.4866 13.3976C10.2287 13.5541 9.93428 13.6323 9.60344 13.6323C9.2726 13.6323 8.97912 13.5567 8.72298 13.4056C8.46685 13.2526 8.26675 13.0347 8.12267 12.7519C7.98038 12.4691 7.90567 12.1445 7.89856 11.778V11.5593C7.89856 11.1786 7.96793 10.8433 8.10667 10.5534C8.24718 10.2617 8.44729 10.0367 8.70698 9.8784C8.96844 9.72009 9.26549 9.64094 9.5981 9.64094C9.92716 9.64094 10.2206 9.71921 10.4786 9.87573C10.7365 10.0323 10.9366 10.2555 11.0789 10.5454C11.2229 10.8336 11.2959 11.1644 11.2976 11.5379V11.7167ZM10.3452 11.5539C10.3452 11.168 10.2802 10.8754 10.1504 10.6761C10.0223 10.4752 9.83823 10.3747 9.5981 10.3747C9.12853 10.3747 8.8804 10.7268 8.85372 11.4312L8.85105 11.7167C8.85105 12.0973 8.91419 12.3899 9.04048 12.5945C9.16677 12.799 9.35442 12.9013 9.60344 12.9013C9.84001 12.9013 10.0223 12.8008 10.1504 12.5998C10.2785 12.3988 10.3434 12.1098 10.3452 11.7327V11.5539ZM13.5025 12.5224L14.2763 9.6943H15.3221L14.0148 13.579H12.9903L11.6936 9.6943H12.7315L13.5025 12.5224ZM18.2901 11.9328H16.8173V12.8586H18.5569V13.579H15.8808V9.6943H18.5622V10.4173H16.8173V11.2364H18.2901V11.9328ZM20.655 12.2076H20.1481V13.579H19.2116V9.6943H20.7404C21.2011 9.6943 21.5613 9.79658 21.821 10.0011C22.0807 10.2057 22.2105 10.4947 22.2105 10.8682C22.2105 11.1386 22.1554 11.3627 22.0451 11.5406C21.9366 11.7185 21.7658 11.8625 21.5328 11.9728L22.3439 13.539V13.579H21.3407L20.655 12.2076ZM20.1481 11.4846H20.7404C20.9183 11.4846 21.0517 11.4383 21.1406 11.3458C21.2313 11.2516 21.2767 11.1208 21.2767 10.9536C21.2767 10.7864 21.2313 10.6557 21.1406 10.5614C21.0499 10.4654 20.9165 10.4173 20.7404 10.4173H20.1481V11.4846ZM25.9655 10.4173H24.7996V13.579H23.8631V10.4173H22.7185V9.6943H25.9655V10.4173ZM28.101 11.3805L28.816 9.6943H29.8272L28.5759 12.1836V13.579H27.6261V12.1836L26.3775 9.6943H27.3833L28.101 11.3805ZM6.38204 17.8533H5.09871L4.87459 18.579H3.87408L5.29881 14.6943H6.17927L7.61468 18.579H6.60882L6.38204 17.8533ZM5.32283 17.1302H6.15792L5.73904 15.7829L5.32283 17.1302ZM11.2576 17.2636C11.2452 17.534 11.1723 17.7732 11.0388 17.9813C10.9054 18.1877 10.7178 18.3477 10.4759 18.4616C10.2358 18.5754 9.96096 18.6323 9.65146 18.6323C9.14098 18.6323 8.73899 18.466 8.44551 18.1334C8.15202 17.8008 8.00528 17.3312 8.00528 16.7247V16.5326C8.00528 16.1519 8.07109 15.8193 8.20272 15.5347C8.33612 15.2484 8.52733 15.0278 8.77635 14.8731C9.02536 14.7165 9.31351 14.6383 9.64079 14.6383C10.1121 14.6383 10.491 14.7628 10.7774 15.0118C11.0638 15.259 11.2265 15.6005 11.2656 16.0363H10.3318C10.3247 15.7998 10.2651 15.6299 10.1531 15.5267C10.041 15.4236 9.87024 15.372 9.64079 15.372C9.40778 15.372 9.23703 15.4591 9.12853 15.6335C9.02003 15.8078 8.96311 16.0861 8.95777 16.4686V16.7434C8.95777 17.1578 9.00935 17.454 9.11252 17.6318C9.21746 17.8097 9.39711 17.8986 9.65146 17.8986C9.86669 17.8986 10.0312 17.8479 10.1451 17.7465C10.2589 17.6452 10.3194 17.4842 10.3265 17.2636H11.2576ZM14.9433 15.4173H13.7773V18.579H12.8408V15.4173H11.6963V14.6943H14.9433V15.4173ZM16.6119 18.579H15.678V14.6943H16.6119V18.579ZM20.8258 16.7167C20.8258 17.0955 20.7555 17.4308 20.615 17.7225C20.4745 18.0142 20.2744 18.2392 20.0147 18.3976C19.7568 18.5541 19.4624 18.6323 19.1316 18.6323C18.8007 18.6323 18.5072 18.5567 18.2511 18.4056C17.995 18.2526 17.7949 18.0347 17.6508 17.7519C17.5085 17.4691 17.4338 17.1445 17.4267 16.778V16.5593C17.4267 16.1786 17.4961 15.8433 17.6348 15.5534C17.7753 15.2617 17.9754 15.0367 18.2351 14.8784C18.4966 14.7201 18.7936 14.6409 19.1262 14.6409C19.4553 14.6409 19.7488 14.7192 20.0067 14.8757C20.2646 15.0323 20.4647 15.2555 20.607 15.5454C20.7511 15.8336 20.824 16.1644 20.8258 16.5379V16.7167ZM19.8733 16.5539C19.8733 16.168 19.8084 15.8754 19.6785 15.6761C19.5505 15.4752 19.3664 15.3747 19.1262 15.3747C18.6567 15.3747 18.4085 15.7268 18.3818 16.4312L18.3792 16.7167C18.3792 17.0973 18.4423 17.3899 18.5686 17.5945C18.6949 17.799 18.8826 17.9013 19.1316 17.9013C19.3681 17.9013 19.5505 17.8008 19.6785 17.5998C19.8066 17.3988 19.8715 17.1098 19.8733 16.7327V16.5539ZM24.8262 18.579H23.8951L22.5184 16.1617V18.579H21.5819V14.6943H22.5184L23.8924 17.1116V14.6943H24.8262V18.579ZM5.11205 22.8586H6.74223V23.579H4.17557V19.6943H5.11205V22.8586ZM9.67014 22.8533H8.38681L8.16269 23.579H7.16218L8.58691 19.6943H9.46737L10.9028 23.579H9.89692L9.67014 22.8533ZM8.61093 22.1302H9.44603L9.02714 20.7829L8.61093 22.1302ZM11.4615 23.579V19.6943H12.8569C13.3567 19.6943 13.7364 19.7859 13.9961 19.9691C14.2576 20.1523 14.3883 20.4182 14.3883 20.7669C14.3883 20.9679 14.3421 21.1395 14.2496 21.2818C14.1571 21.4241 14.021 21.529 13.8414 21.5966C14.0441 21.65 14.1998 21.7496 14.3083 21.8954C14.4168 22.0413 14.471 22.2192 14.471 22.4291C14.471 22.8097 14.3501 23.0961 14.1082 23.2882C13.868 23.4785 13.5114 23.5754 13.0383 23.579H11.4615ZM12.398 21.9275V22.8586H13.0116C13.1806 22.8586 13.3104 22.8204 13.4011 22.7439C13.4919 22.6656 13.5372 22.5562 13.5372 22.4157C13.5372 22.092 13.3762 21.9292 13.0543 21.9275H12.398ZM12.398 21.3138H12.8862C13.0908 21.312 13.2366 21.2747 13.3238 21.2017C13.4109 21.1288 13.4545 21.0212 13.4545 20.8789C13.4545 20.7153 13.4074 20.5979 13.3131 20.5267C13.2188 20.4538 13.0667 20.4173 12.8569 20.4173H12.398V21.3138Z" fill="#7E899A"/>
<path d="M0.547488 28.121V0.547488H22.6831L36.1662 14.3356L22.7854 28.121H0.547488ZM22.6392 0.502567L22.6394 0.50277C22.6393 0.502702 22.6393 0.502634 22.6392 0.502565L22.746 0.398171L22.6392 0.502567ZM22.7414 28.1663C22.7415 28.1661 22.7417 28.166 22.7418 28.1658L22.7414 28.1663Z" stroke="#7E899A" stroke-width="1.09498"/>
</svg>
