<svg width="6" height="16" viewBox="0 0 6 16" fill="none" xmlns="http://www.w3.org/2000/svg">
<path d="M2.244 11.832C2.244 12.492 2.244 13.174 2.222 13.834C2.2 14.186 2.112 14.274 1.87 14.274H0.792C0.638 14.274 0.572 14.318 0.572 14.45V14.89C0.572 15.022 0.638 15.066 0.748 15.066C0.99 15.066 1.848 15 3.124 15C4.048 15 5.06 15.066 5.236 15.066C5.39 15.066 5.434 15 5.434 14.846V14.472C5.434 14.34 5.39 14.274 5.214 14.274H4.202C3.96 14.274 3.894 14.12 3.85 13.702C3.828 13.46 3.828 12.668 3.828 11.81V9.412C3.828 7.586 3.828 6.2 3.872 5.826C3.894 5.672 3.872 5.562 3.762 5.562C3.63 5.562 3.52 5.606 3.344 5.694C2.508 6.156 1.672 6.508 0.968 6.772C0.858 6.816 0.814 6.86 0.814 6.926V7.124C0.814 7.212 0.858 7.256 1.012 7.278C2.112 7.454 2.244 7.85 2.244 8.598V11.832ZM2.464 3.032C3.344 3.032 3.74 2.394 3.74 1.822C3.74 1.338 3.366 0.744 2.596 0.744C1.716 0.744 1.254 1.338 1.254 1.888C1.254 2.592 1.98 3.032 2.464 3.032Z" fill="#626B77"/>
</svg>
