<svg width="31" height="26" viewBox="0 0 31 26" fill="none" xmlns="http://www.w3.org/2000/svg">
<path d="M15.5 24.7255C15.4405 24.6854 15.3729 24.6411 15.2969 24.5935C14.9633 24.3842 14.4703 24.1098 13.8179 23.837C12.512 23.2909 10.5716 22.7528 8 22.7528C5.42958 22.7528 3.36924 23.2904 1.94732 23.8309C1.34916 24.0583 0.863597 24.2864 0.5 24.4755V5.64105C0.556553 5.56739 0.643908 5.46032 0.764582 5.33055C1.01437 5.06195 1.40634 4.69674 1.963 4.32918C3.07178 3.59707 4.85151 2.84375 7.5 2.84375C10.1499 2.84375 12.0622 3.59806 13.3061 4.34117C13.9294 4.71356 14.3867 5.08431 14.6853 5.3584C14.8346 5.49539 14.9439 5.60804 15.0143 5.68435C15.0495 5.72249 15.0749 5.75152 15.0907 5.76994L15.107 5.7894L15.1093 5.79214L15.1096 5.79245L15.1098 5.79271L15.1098 5.79279L15.1099 5.79284L15.5 6.28228L15.8902 5.79269L15.8904 5.79249L15.8905 5.79237L15.8907 5.79211L15.891 5.79177L15.8934 5.78881L15.9102 5.76877C15.9262 5.74997 15.9517 5.72057 15.9868 5.68207C16.057 5.60503 16.1652 5.49175 16.3114 5.35421C16.604 5.07892 17.0472 4.70776 17.6407 4.3355C18.8256 3.59221 20.6098 2.84375 23 2.84375C25.3929 2.84375 27.308 3.59395 28.6273 4.34627C29.2868 4.72235 29.7951 5.09774 30.1365 5.37704C30.2941 5.50599 30.4158 5.61419 30.5 5.69212V24.4755C30.1364 24.2864 29.6508 24.0583 29.0527 23.8309C27.6308 23.2904 25.5704 22.7528 23 22.7528C20.4284 22.7528 18.488 23.2909 17.1821 23.837C16.5297 24.1098 16.0367 24.3842 15.7031 24.5935C15.6271 24.6411 15.5594 24.6854 15.5 24.7255ZM0.420386 5.75081L0.421274 5.74942L0.421013 5.74983L0.420626 5.75043L0.420386 5.75081Z" stroke="black"/>
<path d="M15.5 24.4126C15.2862 24.1173 14.9906 23.7523 14.6036 23.3652C13.6774 22.439 12.2253 21.3847 10.1213 20.8587C8.05469 20.342 6.24542 20.3417 4.95024 20.4713C4.34849 20.5315 3.85663 20.6198 3.5 20.6979V1.17173C3.55864 1.1484 3.62615 1.12252 3.70213 1.09489C4.02554 0.977281 4.50111 0.828419 5.09806 0.709031C6.29224 0.470196 7.96548 0.35052 9.87872 0.828888C11.7747 1.30293 13.0726 2.2486 13.8965 3.07239C14.3089 3.48483 14.6021 3.8664 14.7905 4.14176C14.8846 4.27932 14.9523 4.38999 14.9955 4.46422C15.0171 4.50132 15.0325 4.52927 15.0419 4.54688L15.0517 4.56535L15.0528 4.56737L15.053 4.56774L15.0531 4.56805L15.0533 4.56846L15.0533 4.56848L15.5 5.46173L15.9467 4.56848L15.9467 4.56846L15.9469 4.56805L15.947 4.56774L15.9472 4.56737L15.9483 4.56535L15.9581 4.54688C15.9675 4.52927 15.9829 4.50132 16.0045 4.46422C16.0477 4.38999 16.1154 4.27932 16.2095 4.14176C16.3979 3.8664 16.6911 3.48483 17.1035 3.07239C17.9274 2.2486 19.2253 1.30293 21.1213 0.828888C23.0345 0.35052 24.7078 0.470183 25.9019 0.709006C26.4989 0.828388 26.9745 0.977244 27.2979 1.09485C27.3739 1.12247 27.4414 1.14835 27.5 1.17168V20.6979C27.1434 20.6198 26.6515 20.5315 26.0497 20.4713C24.7546 20.3418 22.9453 20.3421 20.8787 20.8587C18.7747 21.3847 17.3226 22.4391 16.3964 23.3652C16.0094 23.7523 15.7138 24.1173 15.5 24.4126ZM3.22276 1.29139C3.22265 1.29144 3.22273 1.2914 3.22298 1.29128L3.22276 1.29139Z" fill="white" stroke="black"/>
<line x1="15.5" y1="6.34375" x2="15.5" y2="24.3438" stroke="black"/>
<path d="M15.5 4.84375L15.5 24.3438" stroke="black"/>
</svg>
