<svg width="40" height="40" viewBox="0 0 40 40" fill="none" xmlns="http://www.w3.org/2000/svg">
<g clip-path="url(#clip0)">
<path d="M2.06871 37.1416L18.8175 15.4039C20.3295 13.4414 23.2221 13.2547 24.9739 15.0065C26.7045 16.7371 26.5466 19.5878 24.6355 21.1167L3.20707 38.2594C2.88738 38.5151 2.42652 38.4896 2.13703 38.2001C1.8515 37.9146 1.82225 37.4615 2.06871 37.1416Z" stroke="black" stroke-width="2"/>
<path d="M25.9114 15.8667L29.5099 12.9879L34.3445 9.12018C35.6047 8.11198 35.7088 6.23219 34.5676 5.09099V5.09099C33.4124 3.93578 31.5051 4.0589 30.5079 5.35303L26.751 10.229L23.9322 13.8875" stroke="black" stroke-width="2"/>
<path d="M35.0791 7.50814C35.0791 7.50814 36.535 7.50814 37.3259 8.70449V8.70449C38.2414 10.0891 37.5628 11.9096 36.0399 12.57L30.3869 15.0214L28.2729 15.9382L26.7075 16.6076" stroke="black" stroke-width="2"/>
<path d="M32.3346 4.76488C32.3346 4.76488 32.3401 3.30952 31.1472 2.51436V2.51436C29.7665 1.59405 27.9442 2.26552 27.2783 3.78533L24.8065 9.427L23.8822 11.5367L23.2071 13.0989" stroke="black" stroke-width="2"/>
<line x1="17.7878" y1="17.4712" x2="18.5575" y2="18.2409" stroke="black" stroke-width="2" stroke-linecap="round"/>
<line x1="23.6115" y1="20.3831" x2="24.3812" y2="21.1527" stroke="black" stroke-width="2" stroke-linecap="round"/>
<line x1="18.5159" y1="22.5669" x2="19.2856" y2="23.3366" stroke="black" stroke-width="2" stroke-linecap="round"/>
<line x1="13.4205" y1="23.2949" x2="14.1902" y2="24.0645" stroke="black" stroke-width="2" stroke-linecap="round"/>
<line x1="11.9641" y1="29.1186" x2="12.7338" y2="29.8883" stroke="black" stroke-width="2" stroke-linecap="round"/>
<line x1="8.32439" y1="29.8465" x2="9.09406" y2="30.6162" stroke="black" stroke-width="2" stroke-linecap="round"/>
</g>
<defs>
<clipPath id="clip0">
<rect width="40" height="40" fill="white"/>
</clipPath>
</defs>
</svg>
