<svg width="35" height="33" viewBox="0 0 35 33" fill="none" xmlns="http://www.w3.org/2000/svg">
<path d="M20 20.5C20 26.0228 16.0228 31 10.5 31C4.97715 31 1 26.0228 1 20.5" stroke="black"/>
<path d="M17 20.5C17 24.366 14.366 28 10.5 28C6.63401 28 4 24.366 4 20.5" stroke="black"/>
<path d="M20 20.5C20 19.6716 19.5 19 18.5 19C17.5 19 17 19.6716 17 20.5" stroke="black"/>
<path d="M4 20.5C4 19.6716 3.5 19 2.5 19C1.5 19 1 19.6716 1 20.5" stroke="black"/>
<circle cx="10.5" cy="28.5" r="3.5" fill="white" stroke="black"/>
<path d="M11.3924 22.4545C6.60947 19.6931 4.2877 13.7602 7.04913 8.97724C9.81055 4.19431 16.1095 3.23858 20.8924 6" stroke="black"/>
<path d="M12.8924 19.8564C9.54435 17.9234 7.71421 13.8253 9.6472 10.4772C11.5802 7.1292 16.0443 6.66509 19.3924 8.59808" stroke="black"/>
<path d="M11.3924 22.4545C12.1098 22.8687 12.9414 22.7715 13.4414 21.9055C13.9414 21.0394 13.6098 20.2706 12.8924 19.8564" stroke="black"/>
<path d="M19.3924 8.59808C20.1098 9.01229 20.9414 8.91506 21.4414 8.04904C21.9414 7.18301 21.6098 6.41421 20.8924 6" stroke="black"/>
<circle cx="9.21418" cy="10.2273" r="3.5" transform="rotate(120 9.21418 10.2273)" fill="white" stroke="black"/>
<path d="M14.299 14.0001C19.0819 11.2387 25.3809 12.1944 28.1423 16.9773C30.9037 21.7603 28.5819 27.6932 23.799 30.4546" stroke="black"/>
<path d="M15.799 16.5982C19.1471 14.6652 23.6112 15.1293 25.5442 18.4773C27.4772 21.8254 25.6471 25.9235 22.299 27.8565" stroke="black"/>
<path d="M14.299 14.0001C13.5816 14.4143 13.25 15.1831 13.75 16.0491C14.25 16.9152 15.0816 17.0124 15.799 16.5982" stroke="black"/>
<path d="M22.299 27.8565C21.5816 28.2707 21.25 29.0395 21.75 29.9056C22.25 30.7716 23.0816 30.8688 23.799 30.4546" stroke="black"/>
<circle cx="25.9772" cy="18.2273" r="3.5" transform="rotate(-120 25.9772 18.2273)" fill="white" stroke="black"/>
</svg>
