<svg width="40" height="40" viewBox="0 0 40 40" fill="none" xmlns="http://www.w3.org/2000/svg">
<path d="M3.89999 13.875V9H39V26.55H34.125" stroke="black" stroke-width="2"/>
<rect x="1" y="13.9" width="33.1" height="15.55" stroke="black" stroke-width="2"/>
<path d="M21.434 23.846C21.434 20.85 16.856 21.046 16.856 19.562C16.856 18.96 17.304 18.568 18.088 18.568C18.97 18.568 19.39 19.114 19.39 19.87V19.968H21.364V19.674C21.364 18.176 20.37 17.14 18.802 16.916V15.712H17.402V16.93C15.708 17.154 14.756 18.302 14.756 19.646C14.756 22.516 19.348 22.446 19.348 23.902C19.348 24.546 18.956 25.008 18.018 25.008C17.178 25.008 16.52 24.588 16.52 23.664V23.468H14.546V23.958C14.546 25.442 15.666 26.478 17.374 26.674V27.864H18.774V26.66C20.538 26.38 21.434 25.246 21.434 23.846Z" fill="black"/>
</svg>
