<svg width="42" height="35" viewBox="0 0 42 35" fill="none" xmlns="http://www.w3.org/2000/svg">
<path d="M24 18.2114C24 19.0353 23.75 19.7074 23.25 20.2275C22.7553 20.7425 22.0186 21 21.0399 21C20.0612 21 19.3085 20.7219 18.7819 20.1657C18.2606 19.6044 18 18.9066 18 18.0723V12.9122C18 12.0779 18.2606 11.3853 18.7819 10.8343C19.3085 10.2781 20.0612 10 21.0399 10C22.0186 10 22.7553 10.2575 23.25 10.7725C23.75 11.2823 24 11.9492 24 12.7732V13.9087H22.68V12.7732C22.68 12.32 22.646 11.9126 22.38 11.65C21.9344 11.21 21.5293 11.1 21.0399 11.1C20.5399 11.1 20.0606 11.3874 19.8 11.65C19.5394 11.9075 19.32 12.3071 19.32 12.7294V15.5V18.25C19.32 18.6723 19.5394 19.0874 19.8 19.35C20.0606 19.6075 20.5399 19.79 21.0399 19.79C21.5399 19.79 22.0647 19.6075 22.32 19.35C22.5806 19.0874 22.68 18.6749 22.68 18.2114V17.0758H24V18.2114Z" fill="black"/>
<path d="M13.5 34.5V7.74545L21 0.686624L28.5 7.74545V34.5H13.5Z" stroke="black"/>
<rect x="0.5" y="10.5" width="13" height="24" stroke="black"/>
<rect x="28.5" y="10.5" width="13" height="24" stroke="black"/>
<rect x="4.5" y="25.5" width="5" height="5" stroke="black"/>
<rect x="18.5" y="25.5" width="5" height="9" stroke="black"/>
<rect x="32.5" y="25.5" width="5" height="5" stroke="black"/>
<rect x="4.5" y="15.5" width="5" height="5" stroke="black"/>
<rect x="32.5" y="15.5" width="5" height="5" stroke="black"/>
</svg>
