<svg width="36" height="41" viewBox="0 0 36 41" fill="none" xmlns="http://www.w3.org/2000/svg">
<path d="M18 7.5L18 0" stroke="black"/>
<path d="M23.9472 3.08114L25.1113 5.17665H18V0.5H25.1113L23.9472 2.5955L23.8123 2.83832L23.9472 3.08114Z" stroke="black"/>
<path d="M15.5 32.5C15.5 31.1193 16.6193 30 18 30C19.3807 30 20.5 31.1193 20.5 32.5V40H15.5V32.5Z" stroke="black"/>
<path d="M26 20H32.5V40H3.5V20H10H10.2794L10.4258 19.762L18 7.45402L25.5742 19.762L25.7206 20H26Z" stroke="black"/>
<circle cx="18" cy="21" r="2.5" stroke="black"/>
<rect x="7.5" y="32" width="4" height="4" stroke="black"/>
<rect x="24.5" y="32" width="4" height="4" stroke="black"/>
<rect x="7.5" y="24" width="4" height="4" stroke="black"/>
<rect x="24.5" y="24" width="4" height="4" stroke="black"/>
<path d="M5.5 20H1L7.5 10H16.5M30.5 20H35L28.5 10H19.5" stroke="black"/>
</svg>
