<svg width="40" height="40" viewBox="0 0 40 40" fill="none" xmlns="http://www.w3.org/2000/svg">
<g clip-path="url(#clip0)">
<path d="M24.0001 28H13.0001V1H27.0001V22" stroke="black" stroke-width="2"/>
<rect x="1" y="4.99999" width="12" height="23" stroke="black" stroke-width="2"/>
<path d="M26.9999 25.5V4.99999H38.9999V28H35.4999" stroke="black" stroke-width="2"/>
<rect x="18.0001" y="18" width="4" height="10" stroke="black" stroke-width="2"/>
<line x1="30.0002" y1="9" x2="36.0002" y2="9" stroke="black" stroke-width="2"/>
<line x1="30.0002" y1="13" x2="36.0002" y2="13" stroke="black" stroke-width="2"/>
<line x1="30.0002" y1="17" x2="36.0002" y2="17" stroke="black" stroke-width="2"/>
<line x1="30.0002" y1="21" x2="36.0002" y2="21" stroke="black" stroke-width="2"/>
<line x1="4.00003" y1="21" x2="10" y2="21" stroke="black" stroke-width="2"/>
<line x1="4.00003" y1="17" x2="10" y2="17" stroke="black" stroke-width="2"/>
<line x1="4.00003" y1="13" x2="10" y2="13" stroke="black" stroke-width="2"/>
<line x1="4.00003" y1="9" x2="10" y2="9" stroke="black" stroke-width="2"/>
<circle cx="20.0001" cy="6.99999" r="2" stroke="black" stroke-width="2"/>
<circle cx="30.0122" cy="32.0291" r="7" stroke="black" stroke-width="2"/>
<path d="M32.2862 35.3343V33.9943H29.3962V32.4144H31.4162V31.3744H29.3962V29.9644H32.2862V28.6744H27.7962V35.3343H32.2862Z" fill="black"/>
</g>
<defs>
<clipPath id="clip0">
<rect width="40" height="40" fill="white"/>
</clipPath>
</defs>
</svg>
