<svg width="40" height="40" viewBox="0 0 40 40" fill="none" xmlns="http://www.w3.org/2000/svg">
<path d="M23.9999 28H12.9999V1H26.9999V22" stroke="black" stroke-width="2"/>
<rect x="1" y="4.99998" width="12" height="23" stroke="black" stroke-width="2"/>
<path d="M27.0001 25.5V4.99999H39.0001V28H35.5001" stroke="black" stroke-width="2"/>
<rect x="18" y="18" width="4" height="10" stroke="black" stroke-width="2"/>
<line x1="30.0001" y1="8.99999" x2="36.0001" y2="8.99999" stroke="black" stroke-width="2"/>
<line x1="30.0001" y1="13" x2="36.0001" y2="13" stroke="black" stroke-width="2"/>
<line x1="30.0001" y1="17" x2="36.0001" y2="17" stroke="black" stroke-width="2"/>
<line x1="30.0001" y1="21" x2="36.0001" y2="21" stroke="black" stroke-width="2"/>
<line x1="4.00005" y1="21" x2="10" y2="21" stroke="black" stroke-width="2"/>
<line x1="4.00005" y1="17" x2="10" y2="17" stroke="black" stroke-width="2"/>
<line x1="4.00005" y1="13" x2="10" y2="13" stroke="black" stroke-width="2"/>
<line x1="4.00005" y1="8.99999" x2="10" y2="8.99999" stroke="black" stroke-width="2"/>
<circle cx="20" cy="6.99997" r="2" stroke="black" stroke-width="2"/>
<circle cx="30" cy="32" r="7" stroke="black" stroke-width="2"/>
<path d="M32.6676 35.3343V28.6743H31.0676V31.4043H28.9176V28.6743H27.3176V35.3343H28.9176V32.6843H31.0676V35.3343H32.6676Z" fill="black"/>
</svg>
