<svg width="40" height="40" viewBox="0 0 40 40" fill="none" xmlns="http://www.w3.org/2000/svg">
<path d="M6.85855 14.5985C5.53322 16.4249 4.63722 18.5268 4.23736 20.7477C3.83749 22.9685 3.94407 25.251 4.54914 27.4249C5.15422 29.5988 6.24219 31.6082 7.73194 33.3031C9.22169 34.998 11.0748 36.3348 13.1531 37.2138C15.2315 38.0928 17.4814 38.4913 19.7352 38.3797C21.989 38.2681 24.1885 37.6492 26.1698 36.5692C28.1512 35.4892 29.8631 33.9758 31.1782 32.142C32.4932 30.3082 33.3773 28.2013 33.7646 25.9782" stroke="black" stroke-width="2" stroke-linecap="round" stroke-linejoin="round"/>
<path d="M22.1584 8.78999C24.1226 9.21716 25.9811 10.034 27.624 11.1921C29.2669 12.3502 30.6608 13.826 31.7233 15.5323" stroke="black" stroke-width="2" stroke-linecap="round" stroke-linejoin="round"/>
<path d="M15.3627 15.5691C19.1097 15.5691 22.1473 12.5316 22.1473 8.78455C22.1473 5.03755 19.1097 2 15.3627 2C11.6157 2 8.57816 5.03755 8.57816 8.78455C8.57816 12.5316 11.6157 15.5691 15.3627 15.5691Z" stroke="black" stroke-width="2" stroke-linecap="round" stroke-linejoin="round"/>
<path d="M25.5927 28.7057C23.8267 30.3928 21.472 31.3241 19.0297 31.3014C14.155 31.3014 10.1982 27.8194 10.1982 23.5303" stroke="black" stroke-width="2" stroke-linecap="round" stroke-linejoin="round"/>
<path d="M12.4928 28.732C12.4928 28.732 17.8529 22.4751 23.9569 22.6703" stroke="black" stroke-width="2" stroke-linecap="round" stroke-linejoin="round"/>
<path d="M30.193 27.1757C33.4651 27.1757 36.1176 24.5231 36.1176 21.2511C36.1176 17.979 33.4651 15.3264 30.193 15.3264C26.921 15.3264 24.2684 17.979 24.2684 21.2511C24.2684 24.5231 26.921 27.1757 30.193 27.1757Z" stroke="black" stroke-width="2" stroke-linecap="round" stroke-linejoin="round"/>
</svg>
